<?xml version="1.0" encoding="UTF-8"?>
<svg width="100" height="100" viewBox="0 0 100 100" xmlns="http://www.w3.org/2000/svg">
    <!-- تعريف المرشحات -->
    <defs>
        <!-- مرشح الظل الخارجي -->
        <filter id="outer-shadow" x="-50%" y="-50%" width="200%" height="200%">
            <feGaussianBlur in="SourceAlpha" stdDeviation="3"/>
            <feOffset dx="0" dy="2"/>
            <feComposite in2="SourceAlpha" operator="arithmetic" k2="-1" k3="1"/>
            <feColorMatrix type="matrix" values="0 0 0 0 0   0 0 0 0 0   0 0 0 0 0  0 0 0 0.3 0"/>
            <feMerge>
                <feMergeNode/>
                <feMergeNode in="SourceGraphic"/>
            </feMerge>
        </filter>
        
        <!-- مرشح التوهج -->
        <filter id="glow" x="-50%" y="-50%" width="200%" height="200%">
            <feGaussianBlur in="SourceGraphic" stdDeviation="2"/>
            <feComposite in2="SourceGraphic" operator="over"/>
        </filter>
    </defs>
    
    <!-- خلفية الشعار -->
    <rect width="100" height="100" rx="25" fill="#2D3748"/>
    
    <!-- العناصر الرئيسية للشعار -->
    <g filter="url(#outer-shadow)">
        <!-- الجزء الأول - مستطيل علوي -->
        <path d="M30 32 L50 32 Q52 32 52 34 L52 38 Q52 40 50 40 L30 40 Q28 40 28 38 L28 34 Q28 32 30 32 Z" fill="#9F7AEA">
            <animate attributeName="opacity" values="0.8;1;0.8" dur="3s" repeatCount="indefinite"/>
        </path>
        
        <!-- الجزء الثاني - مثلث في الوسط -->
        <path d="M50 42 L70 62 L30 62 Z" fill="#4299E1" filter="url(#glow)">
            <animate attributeName="opacity" values="0.8;1;0.8" dur="2s" repeatCount="indefinite"/>
        </path>
        
        <!-- الجزء الثالث - شكل L معكوس -->
        <path d="M70 32 L90 32 Q92 32 92 34 L92 38 Q92 40 90 40 L85 40 L85 45 L80 45 L80 50 Q80 52 78 52 L70 52 Q68 52 68 50 L68 34 Q68 32 70 32 Z" fill="#9F7AEA">
            <animate attributeName="opacity" values="0.8;1;0.8" dur="2.5s" repeatCount="indefinite"/>
        </path>
    </g>
</svg> 